<svg width="159" height="42" viewBox="0 0 159 42" fill="none" xmlns="http://www.w3.org/2000/svg">
<path d="M1.31844 16.0757C0.0701993 26.0431 2.09159 39.8887 14.6224 40.9327C19.8075 41.3642 24.5781 39.7446 27.6904 35.3693C30.2186 31.8142 31.0894 27.2932 31.3171 22.9899C31.7301 15.2059 30.0181 5.09516 21.7381 1.97225C18.5464 0.768626 14.8494 0.715184 11.582 1.63145C5.09947 3.44928 2.10899 9.76171 1.31844 16.0757Z" stroke="white"/>
<path d="M23.1726 12.668L23.1703 14.1729C23.1703 14.1987 23.1577 14.2116 23.1325 14.2116C20.1488 14.2047 17.5139 12.4542 16.1922 9.74957C16.1902 9.74544 16.1872 9.74201 16.1833 9.73964C16.1795 9.73726 16.175 9.73605 16.1705 9.73613C16.1659 9.73621 16.1615 9.73758 16.1576 9.74009C16.1537 9.7426 16.1505 9.74615 16.1484 9.75034C15.7741 10.5233 15.2923 11.2186 14.7027 11.8362C14.6962 11.843 14.6922 11.8519 14.6914 11.8615C14.6905 11.8711 14.6929 11.8807 14.6981 11.8888C16.5766 14.8073 19.6903 16.5949 23.1204 16.622C23.1338 16.622 23.1467 16.6275 23.1562 16.6372C23.1657 16.6469 23.171 16.6601 23.171 16.6739V18.1633C23.171 18.1711 23.1695 18.1788 23.1666 18.186C23.1637 18.1932 23.1594 18.1997 23.1539 18.2052C23.1485 18.2107 23.1421 18.215 23.135 18.2179C23.128 18.2208 23.1204 18.2223 23.1128 18.2222C22.0542 18.2103 21.0152 18.0585 19.996 17.7667C19.9682 17.759 19.944 17.7652 19.9234 17.7853C19.2783 18.4173 18.5861 18.9895 17.8467 19.5017C17.8439 19.5038 17.8417 19.5066 17.8403 19.5099C17.8388 19.5131 17.8383 19.5167 17.8387 19.5203C17.8391 19.5238 17.8404 19.5272 17.8424 19.53C17.8445 19.5329 17.8473 19.5351 17.8505 19.5365C19.5411 20.2471 21.3025 20.6095 23.1347 20.624C23.1589 20.624 23.171 20.6364 23.171 20.6612V22.1893C23.171 22.2126 23.1597 22.2242 23.137 22.2242C20.9981 22.2051 18.9487 21.7656 16.9889 20.9059C16.9621 20.894 16.9488 20.9031 16.9488 20.933V25.8676C16.9488 25.8918 16.9604 25.9068 16.9836 25.9125C18.1834 26.2153 19.0314 26.9643 20.0103 27.673C21.13 28.4839 22.4811 28.3453 23.5296 27.4569C25.2938 25.9613 27.1949 25.1697 29.3177 26.5236C29.3233 26.5273 29.3298 26.5295 29.3365 26.53C29.3432 26.5304 29.3499 26.5292 29.3559 26.5264C29.362 26.5235 29.3673 26.5191 29.3714 26.5136C29.3754 26.5082 29.378 26.5017 29.379 26.4949C30.5069 18.9626 29.7792 6.9233 21.391 3.57577C18.6138 2.46742 15.3881 2.37138 12.5186 3.05839C2.66434 5.41916 1.75123 18.4228 2.95938 26.5066C2.95997 26.5103 2.96144 26.5138 2.96367 26.5169C2.96591 26.5199 2.96883 26.5223 2.97219 26.5239C2.97555 26.5255 2.97924 26.5263 2.98294 26.5261C2.98664 26.5259 2.99024 26.5248 2.99342 26.5228C4.47517 25.628 5.93246 25.5973 7.36529 26.4307C8.18837 26.9093 8.95018 27.704 9.76721 28.0262C11.4807 28.7008 12.5867 27.4159 13.7949 26.5894C14.2402 26.2848 14.7564 26.0602 15.3434 25.9156C15.3671 25.9099 15.379 25.8944 15.379 25.8691V20.9477C15.379 20.9152 15.3641 20.9049 15.3344 20.9168C14.9591 21.0655 14.537 21.2452 14.2079 21.359C12.5855 21.9203 10.9141 22.2097 9.19377 22.2273C9.18894 22.2274 9.18414 22.2265 9.17964 22.2247C9.17515 22.2228 9.17106 22.2201 9.16761 22.2167C9.16415 22.2132 9.16141 22.2091 9.15954 22.2045C9.15767 22.1999 9.1567 22.195 9.15671 22.1901V20.6627C9.15671 20.6421 9.16679 20.6317 9.18697 20.6317C12.6336 20.5739 15.6604 19.4168 18.2674 17.1603C18.2921 17.1386 18.2898 17.1205 18.2605 17.1061C17.5318 16.7529 16.8433 16.3313 16.1953 15.8413C16.1876 15.8356 16.1784 15.8325 16.169 15.8325C16.1596 15.8325 16.1506 15.8356 16.1431 15.8413C14.097 17.3846 11.7944 18.1785 9.23538 18.2229C9.18293 18.224 9.15671 18.1976 9.15671 18.1439V16.6747C9.15671 16.6437 9.17183 16.6279 9.20209 16.6274C11.2966 16.5928 13.2033 15.9727 14.9221 14.767C14.9448 14.751 14.9463 14.7329 14.9266 14.7128C14.392 14.1618 13.9131 13.5644 13.49 12.9205C13.4739 12.8967 13.4542 12.8926 13.431 12.9081C12.1505 13.7642 10.7418 14.2016 9.20512 14.2202C9.17285 14.2207 9.15671 14.2044 9.15671 14.1714V12.6804C9.15671 12.6473 9.17285 12.6303 9.20512 12.6293C12.6412 12.4953 15.3404 9.83012 15.3805 6.27579C15.381 6.24584 15.3959 6.23061 15.4251 6.23009L16.9011 6.22622C16.9243 6.22622 16.9372 6.23784 16.9397 6.26107C16.9558 6.40669 16.9692 6.55256 16.9798 6.69868C17.2264 10.064 19.8575 12.5146 23.14 12.6331C23.1617 12.6342 23.1726 12.6458 23.1726 12.668Z" stroke="white"/>
<path d="M7.50668 36.2526C10.1318 38.7597 13.6669 39.6202 17.184 39.3964C19.045 39.2779 20.8909 38.8666 22.509 37.9898C26.1531 36.0163 28.1806 32.2738 29.0665 28.288C29.072 28.2638 29.0649 28.2439 29.0453 28.2284C27.9415 27.3524 26.7735 27.096 25.5683 27.9596C24.8973 28.4406 24.1272 29.0579 23.4963 29.3763C22.273 29.9936 20.9204 29.9564 19.6971 29.298C18.9549 28.8992 18.2695 28.2826 17.6061 27.8497C15.8729 26.7181 14.5755 28.0301 13.2509 28.9782C12.0662 29.8255 10.8038 30.031 9.46377 29.5947C8.27303 29.2074 7.38488 28.1959 6.50431 27.7327C5.39829 27.151 4.30362 27.4485 3.38143 28.2338C3.36378 28.2488 3.35748 28.2679 3.36252 28.2911C4.01841 31.2499 5.31961 34.1644 7.50668 36.2526Z" stroke="white"/>
<mask id="path-4-inside-1_1304_2303" fill="white">
<path d="M14.6224 40.9327C2.09159 39.8887 0.0701993 26.0431 1.31844 16.0757C2.10899 9.76171 5.09947 3.44928 11.582 1.63145C14.8494 0.715184 18.5464 0.768626 21.7381 1.97225C30.0181 5.09516 31.7301 15.2059 31.3171 22.9899C31.0894 27.2932 30.2186 31.8142 27.6904 35.3693C24.5781 39.7446 19.8075 41.3642 14.6224 40.9327ZM23.1725 12.6678L23.1702 14.1727C23.1702 14.1985 23.1576 14.2114 23.1324 14.2114C20.1487 14.2044 17.5138 12.454 16.1922 9.74932C16.1902 9.7452 16.1871 9.74176 16.1833 9.73939C16.1794 9.73702 16.175 9.73581 16.1704 9.73589C16.1659 9.73597 16.1614 9.73734 16.1575 9.73985C16.1536 9.74235 16.1504 9.7459 16.1483 9.7501C15.7741 10.5231 15.2922 11.2183 14.7026 11.8359C14.6961 11.8427 14.6921 11.8517 14.6913 11.8613C14.6905 11.8708 14.6929 11.8805 14.6981 11.8886C16.5765 14.807 19.6903 16.5946 23.1203 16.6217C23.1337 16.6217 23.1466 16.6272 23.1561 16.6369C23.1656 16.6467 23.171 16.6599 23.171 16.6736V18.1631C23.171 18.1709 23.1695 18.1786 23.1665 18.1858C23.1636 18.193 23.1593 18.1995 23.1539 18.205C23.1485 18.2104 23.142 18.2148 23.135 18.2177C23.1279 18.2206 23.1203 18.222 23.1127 18.2219C22.0541 18.21 21.0152 18.0582 19.9959 17.7665C19.9682 17.7588 19.944 17.7649 19.9233 17.7851C19.2782 18.4171 18.586 18.9892 17.8467 19.5014C17.8438 19.5035 17.8416 19.5064 17.8402 19.5096C17.8388 19.5129 17.8382 19.5165 17.8386 19.52C17.839 19.5236 17.8403 19.5269 17.8424 19.5298C17.8445 19.5327 17.8472 19.5349 17.8504 19.5363C19.541 20.2468 21.3024 20.6093 23.1347 20.6237C23.1589 20.6237 23.171 20.6361 23.171 20.6609V22.1891C23.171 22.2123 23.1596 22.2239 23.1369 22.2239C20.998 22.2048 18.9486 21.7654 16.9888 20.9057C16.9621 20.8938 16.9487 20.9028 16.9487 20.9328V25.8673C16.9487 25.8916 16.9603 25.9066 16.9835 25.9122C18.1833 26.2151 19.0314 26.9641 20.0103 27.6728C21.1299 28.4837 22.481 28.3451 23.5296 27.4567C25.2937 25.961 27.1949 25.1695 29.3176 26.5234C29.3233 26.5271 29.3297 26.5292 29.3364 26.5297C29.3431 26.5302 29.3498 26.529 29.3559 26.5261C29.362 26.5233 29.3673 26.5189 29.3713 26.5134C29.3753 26.5079 29.3779 26.5015 29.3789 26.4947C30.5069 18.9624 29.7791 6.92306 21.3909 3.57553C18.6138 2.46717 15.388 2.37113 12.5186 3.05814C2.66427 5.41891 1.75116 18.4225 2.95931 26.5063C2.9599 26.5101 2.96137 26.5136 2.9636 26.5166C2.96584 26.5197 2.96876 26.5221 2.97212 26.5237C2.97548 26.5253 2.97917 26.526 2.98287 26.5258C2.98657 26.5256 2.99017 26.5245 2.99335 26.5226C4.4751 25.6277 5.93239 25.597 7.36522 26.4304C8.1883 26.9091 8.95011 27.7037 9.76714 28.0259C11.4806 28.7006 12.5867 27.4156 13.7948 26.5892C14.2401 26.2845 14.7563 26.0599 15.3434 25.9153C15.3671 25.9097 15.3789 25.8942 15.3789 25.8689V20.9475C15.3789 20.915 15.364 20.9046 15.3343 20.9165C14.9591 21.0652 14.5369 21.2449 14.2079 21.3588C12.5854 21.9201 10.914 22.2095 9.1937 22.227C9.18887 22.2271 9.18407 22.2262 9.17957 22.2244C9.17508 22.2226 9.17099 22.2199 9.16754 22.2164C9.16409 22.213 9.16134 22.2088 9.15947 22.2043C9.1576 22.1997 9.15664 22.1948 9.15664 22.1898V20.6625C9.15664 20.6418 9.16672 20.6315 9.1869 20.6315C12.6336 20.5737 15.6603 19.4165 18.2673 17.16C18.292 17.1384 18.2897 17.1203 18.2605 17.1058C17.5317 16.7526 16.8433 16.331 16.1952 15.841C16.1875 15.8354 16.1783 15.8323 16.169 15.8323C16.1596 15.8323 16.1505 15.8354 16.143 15.841C14.0969 17.3844 11.7943 18.1783 9.23531 18.2227C9.18286 18.2237 9.15664 18.1974 9.15664 18.1437V16.6744C9.15664 16.6434 9.17176 16.6277 9.20202 16.6272C11.2965 16.5926 13.2032 15.9724 14.922 14.7667C14.9447 14.7507 14.9462 14.7327 14.9265 14.7125C14.3919 14.1616 13.9131 13.5641 13.4899 12.9203C13.4738 12.8965 13.4541 12.8924 13.4309 12.9079C12.1504 13.764 10.7418 14.2013 9.20505 14.2199C9.17278 14.2204 9.15664 14.2042 9.15664 14.1711V12.6801C9.15664 12.6471 9.17278 12.6301 9.20505 12.629C12.6411 12.495 15.3403 9.82987 15.3804 6.27555C15.3809 6.2456 15.3958 6.23037 15.4251 6.22985L16.901 6.22598C16.9242 6.22598 16.9371 6.23759 16.9396 6.26083C16.9557 6.40644 16.9691 6.55231 16.9797 6.69844C17.2263 10.0638 19.8575 12.5144 23.14 12.6329C23.1616 12.6339 23.1725 12.6456 23.1725 12.6678ZM7.50669 36.2522C10.1318 38.7594 13.6669 39.6199 17.184 39.3961C19.045 39.2776 20.8909 38.8663 22.509 37.9895C26.1531 36.016 28.1806 32.2735 29.0665 28.2877C29.072 28.2635 29.0649 28.2436 29.0453 28.2281C27.9415 27.3521 26.7735 27.0957 25.5684 27.9593C24.8973 28.4403 24.1272 29.0576 23.4963 29.376C22.273 29.9933 20.9204 29.9561 19.6971 29.2977C18.955 28.8988 18.2696 28.2823 17.6061 27.8494C15.8729 26.7178 14.5755 28.0298 13.2509 28.9778C12.0662 29.8252 10.8038 30.0307 9.46378 29.5944C8.27303 29.2071 7.38489 28.1956 6.50431 27.7324C5.3983 27.1507 4.30362 27.4481 3.38144 28.2335C3.36379 28.2485 3.35748 28.2676 3.36253 28.2908C4.01842 31.2495 5.31962 34.1641 7.50669 36.2522Z"/>
</mask>
<path d="M14.6224 40.9327C2.09159 39.8887 0.0701993 26.0431 1.31844 16.0757C2.10899 9.76171 5.09947 3.44928 11.582 1.63145C14.8494 0.715184 18.5464 0.768626 21.7381 1.97225C30.0181 5.09516 31.7301 15.2059 31.3171 22.9899C31.0894 27.2932 30.2186 31.8142 27.6904 35.3693C24.5781 39.7446 19.8075 41.3642 14.6224 40.9327ZM23.1725 12.6678L23.1702 14.1727C23.1702 14.1985 23.1576 14.2114 23.1324 14.2114C20.1487 14.2044 17.5138 12.454 16.1922 9.74932C16.1902 9.7452 16.1871 9.74176 16.1833 9.73939C16.1794 9.73702 16.175 9.73581 16.1704 9.73589C16.1659 9.73597 16.1614 9.73734 16.1575 9.73985C16.1536 9.74235 16.1504 9.7459 16.1483 9.7501C15.7741 10.5231 15.2922 11.2183 14.7026 11.8359C14.6961 11.8427 14.6921 11.8517 14.6913 11.8613C14.6905 11.8708 14.6929 11.8805 14.6981 11.8886C16.5765 14.807 19.6903 16.5946 23.1203 16.6217C23.1337 16.6217 23.1466 16.6272 23.1561 16.6369C23.1656 16.6467 23.171 16.6599 23.171 16.6736V18.1631C23.171 18.1709 23.1695 18.1786 23.1665 18.1858C23.1636 18.193 23.1593 18.1995 23.1539 18.205C23.1485 18.2104 23.142 18.2148 23.135 18.2177C23.1279 18.2206 23.1203 18.222 23.1127 18.2219C22.0541 18.21 21.0152 18.0582 19.9959 17.7665C19.9682 17.7588 19.944 17.7649 19.9233 17.7851C19.2782 18.4171 18.586 18.9892 17.8467 19.5014C17.8438 19.5035 17.8416 19.5064 17.8402 19.5096C17.8388 19.5129 17.8382 19.5165 17.8386 19.52C17.839 19.5236 17.8403 19.5269 17.8424 19.5298C17.8445 19.5327 17.8472 19.5349 17.8504 19.5363C19.541 20.2468 21.3024 20.6093 23.1347 20.6237C23.1589 20.6237 23.171 20.6361 23.171 20.6609V22.1891C23.171 22.2123 23.1596 22.2239 23.1369 22.2239C20.998 22.2048 18.9486 21.7654 16.9888 20.9057C16.9621 20.8938 16.9487 20.9028 16.9487 20.9328V25.8673C16.9487 25.8916 16.9603 25.9066 16.9835 25.9122C18.1833 26.2151 19.0314 26.9641 20.0103 27.6728C21.1299 28.4837 22.481 28.3451 23.5296 27.4567C25.2937 25.961 27.1949 25.1695 29.3176 26.5234C29.3233 26.5271 29.3297 26.5292 29.3364 26.5297C29.3431 26.5302 29.3498 26.529 29.3559 26.5261C29.362 26.5233 29.3673 26.5189 29.3713 26.5134C29.3753 26.5079 29.3779 26.5015 29.3789 26.4947C30.5069 18.9624 29.7791 6.92306 21.3909 3.57553C18.6138 2.46717 15.388 2.37113 12.5186 3.05814C2.66427 5.41891 1.75116 18.4225 2.95931 26.5063C2.9599 26.5101 2.96137 26.5136 2.9636 26.5166C2.96584 26.5197 2.96876 26.5221 2.97212 26.5237C2.97548 26.5253 2.97917 26.526 2.98287 26.5258C2.98657 26.5256 2.99017 26.5245 2.99335 26.5226C4.4751 25.6277 5.93239 25.597 7.36522 26.4304C8.1883 26.9091 8.95011 27.7037 9.76714 28.0259C11.4806 28.7006 12.5867 27.4156 13.7948 26.5892C14.2401 26.2845 14.7563 26.0599 15.3434 25.9153C15.3671 25.9097 15.3789 25.8942 15.3789 25.8689V20.9475C15.3789 20.915 15.364 20.9046 15.3343 20.9165C14.9591 21.0652 14.5369 21.2449 14.2079 21.3588C12.5854 21.9201 10.914 22.2095 9.1937 22.227C9.18887 22.2271 9.18407 22.2262 9.17957 22.2244C9.17508 22.2226 9.17099 22.2199 9.16754 22.2164C9.16409 22.213 9.16134 22.2088 9.15947 22.2043C9.1576 22.1997 9.15664 22.1948 9.15664 22.1898V20.6625C9.15664 20.6418 9.16672 20.6315 9.1869 20.6315C12.6336 20.5737 15.6603 19.4165 18.2673 17.16C18.292 17.1384 18.2897 17.1203 18.2605 17.1058C17.5317 16.7526 16.8433 16.331 16.1952 15.841C16.1875 15.8354 16.1783 15.8323 16.169 15.8323C16.1596 15.8323 16.1505 15.8354 16.143 15.841C14.0969 17.3844 11.7943 18.1783 9.23531 18.2227C9.18286 18.2237 9.15664 18.1974 9.15664 18.1437V16.6744C9.15664 16.6434 9.17176 16.6277 9.20202 16.6272C11.2965 16.5926 13.2032 15.9724 14.922 14.7667C14.9447 14.7507 14.9462 14.7327 14.9265 14.7125C14.3919 14.1616 13.9131 13.5641 13.4899 12.9203C13.4738 12.8965 13.4541 12.8924 13.4309 12.9079C12.1504 13.764 10.7418 14.2013 9.20505 14.2199C9.17278 14.2204 9.15664 14.2042 9.15664 14.1711V12.6801C9.15664 12.6471 9.17278 12.6301 9.20505 12.629C12.6411 12.495 15.3403 9.82987 15.3804 6.27555C15.3809 6.2456 15.3958 6.23037 15.4251 6.22985L16.901 6.22598C16.9242 6.22598 16.9371 6.23759 16.9396 6.26083C16.9557 6.40644 16.9691 6.55231 16.9797 6.69844C17.2263 10.0638 19.8575 12.5144 23.14 12.6329C23.1616 12.6339 23.1725 12.6456 23.1725 12.6678ZM7.50669 36.2522C10.1318 38.7594 13.6669 39.6199 17.184 39.3961C19.045 39.2776 20.8909 38.8663 22.509 37.9895C26.1531 36.016 28.1806 32.2735 29.0665 28.2877C29.072 28.2635 29.0649 28.2436 29.0453 28.2281C27.9415 27.3521 26.7735 27.0957 25.5684 27.9593C24.8973 28.4403 24.1272 29.0576 23.4963 29.376C22.273 29.9933 20.9204 29.9561 19.6971 29.2977C18.955 28.8988 18.2696 28.2823 17.6061 27.8494C15.8729 26.7178 14.5755 28.0298 13.2509 28.9778C12.0662 29.8252 10.8038 30.0307 9.46378 29.5944C8.27303 29.2071 7.38489 28.1956 6.50431 27.7324C5.3983 27.1507 4.30362 27.4481 3.38144 28.2335C3.36379 28.2485 3.35748 28.2676 3.36253 28.2908C4.01842 31.2495 5.31962 34.1641 7.50669 36.2522Z" fill="white" stroke="white" stroke-width="2" mask="url(#path-4-inside-1_1304_2303)"/>
<path d="M51.1947 13.5737C50.8822 13.8937 50.6217 14.2937 50.4915 14.7203C50.4394 14.827 50.4134 14.907 50.3613 15.0137C51.6375 15.6003 52.7315 16.4803 53.591 17.627C54.711 19.147 55.31 21.0137 55.31 22.9337H57.2375V25.3337H51.0385V22.9337H52.9659C52.9919 21.547 52.5492 20.187 51.7157 19.0937C50.9603 18.0803 49.9185 17.3337 48.7204 16.9337C48.0432 17.3603 47.2878 17.6537 46.4804 17.7337V22.9337H48.4078V25.3337H42.2349V22.9337H44.1623V9.06699H42.2349V6.69366H48.4078V9.06699H46.4804V15.307C46.9492 15.227 47.366 15.0137 47.7306 14.7203C48.0171 14.4537 48.2255 14.1337 48.3297 13.787C48.5901 13.0403 49.0329 12.4003 49.5799 11.8403C50.1269 11.307 50.8041 10.8803 51.5333 10.6137C52.0022 10.427 52.2106 10.347 52.4189 10.0803C52.6533 9.78699 52.7836 9.44033 52.8617 9.06699H51.0645V6.69366H57.2375V9.06699H55.2319C55.1538 10.0003 54.7891 10.8803 54.2422 11.6003C53.7473 12.187 53.1222 12.6137 52.3929 12.8537C51.9501 13.0137 51.5333 13.2537 51.1947 13.5737Z" fill="white"/>
<path d="M74.6296 22.9603H76.6352V25.3603H70.4362V22.9603H72.1292L71.2957 20.6937H64.1069L63.2735 22.9603H64.9665V25.3603H58.7935V22.9603H60.773L65.8781 9.09366H63.8986V6.69366H68.639L74.6296 22.9603ZM64.9925 18.2937H70.4101L67.7013 10.9337L64.9925 18.2937Z" fill="white"/>
<path d="M85.2601 6.66699C86.7708 6.66699 88.2294 7.28033 89.2973 8.40033C90.9121 10.0537 91.407 12.5603 90.5214 14.747C89.6359 16.907 87.5782 18.347 85.2601 18.347H82.4211V22.9337H84.3485V25.3337H78.1755V22.9337H80.0769V9.09366H78.1755V6.69366L85.2601 6.66699ZM85.2601 15.947C86.1457 15.947 87.0052 15.5737 87.6303 14.9337C88.2554 14.2937 88.6201 13.4137 88.6201 12.507C88.6201 10.6137 87.1094 9.06699 85.2601 9.06699L82.4211 9.09366V15.947H85.2601Z" fill="white"/>
<path d="M104.785 11.3603H102.441V9.09366H95.8772V14.827H99.8362V17.227H95.8772V22.9603H102.441V20.667H104.785V25.3337H91.6056V22.9603H93.533V9.09366H91.6056V6.69366H104.785V11.3603Z" fill="white"/>
<path d="M123.359 9.09366H121.458V22.9603H123.359V25.3603H117.186V22.9603H119.114V9.09366H115.597C115.571 10.747 115.207 12.4003 114.529 13.9203C114.113 14.827 113.566 15.707 112.941 16.507C112.446 17.0937 112.029 17.7603 111.69 18.4803C111.065 19.867 110.753 21.4137 110.805 22.9603H112.836V25.3603H106.664V22.9603H108.461C108.357 20.0803 109.268 17.2537 111.091 15.0403C111.612 14.3737 112.055 13.6803 112.394 12.907C112.941 11.707 113.227 10.4003 113.253 9.09366H110.336V6.69366H123.359V9.09366Z" fill="white"/>
<path d="M141.127 9.06699L139.226 9.09366V22.9337H141.127V25.3337H134.954V22.9337H136.882V17.6803C136.439 18.4003 135.97 19.1737 135.475 19.9203C133.001 23.707 130.787 25.547 128.703 25.547C128.495 25.547 128.26 25.5203 128.052 25.4937C127.218 25.3337 126.463 24.907 125.89 24.267C124.119 22.3203 124.978 19.2003 126.671 13.8937C127.166 12.3203 127.687 10.6937 128.234 9.06699H125.63V6.69366H128.964C129.563 6.69366 130.11 6.96033 130.448 7.46699C130.787 7.94699 130.891 8.58699 130.683 9.14699C130.683 9.22699 130.657 9.28033 130.631 9.33366C130.292 10.3203 129.641 12.3203 128.885 14.6403C127.375 19.467 126.828 21.7603 127.609 22.6403C127.844 22.907 128.156 23.067 128.469 23.1203C128.547 23.147 128.625 23.147 128.703 23.147C130.839 23.147 134.433 17.8403 136.882 12.5337V9.06699H134.954V6.66699H141.127V9.06699Z" fill="white"/>
<path d="M142.706 22.9337H145.05L147.577 17.6803C145.258 16.4537 144.034 13.7337 144.659 11.147C145.285 8.53366 147.551 6.69366 150.181 6.66699L157.292 6.69366L157.266 9.09366H155.364V22.9337H157.292V25.3337H151.093V22.9337H153.02V18.347H150.181C150.077 18.347 149.973 18.3203 149.869 18.3203L146.509 25.3337H142.706V22.9337ZM147.811 14.9337C148.045 15.1737 148.306 15.3603 148.618 15.5203C148.697 15.5737 148.801 15.627 148.905 15.6803C149.113 15.7603 149.348 15.8403 149.582 15.867C149.764 15.9203 149.973 15.947 150.181 15.947H153.02V9.09366L150.181 9.06699C148.827 9.06699 147.603 9.92033 147.082 11.2003C146.561 12.4803 146.847 13.947 147.811 14.9337Z" fill="white"/>
<path d="M41.998 35.3329V28.7996H46.9937V35.3329H46.1368V29.6069H42.855V35.3329H41.998Z" fill="white"/>
<path d="M49.8637 37.4282C49.7179 37.4282 49.5735 37.4096 49.4307 37.3722C49.2879 37.338 49.1436 37.2758 48.9977 37.1856L49.1937 36.4436C49.2879 36.5058 49.3897 36.5525 49.4991 36.5836C49.6085 36.6147 49.7057 36.6302 49.7908 36.6302C50.0157 36.6302 50.1904 36.5742 50.315 36.4622C50.4396 36.3502 50.5398 36.1791 50.6158 35.9489L50.7936 35.4262L49.025 30.7596H49.9458L51.2676 34.4462L52.5576 30.7596H53.4464L51.491 36.0609C51.3573 36.4218 51.2084 36.7002 51.0443 36.8962C50.8832 37.0954 50.7055 37.2338 50.511 37.3116C50.3165 37.3894 50.1007 37.4282 49.8637 37.4282Z" fill="white"/>
<path d="M56.4526 35.3329V31.4876H54.9211V30.7596H58.8274V31.4876H57.2913V35.3329H56.4526Z" fill="white"/>
<path d="M62.7931 35.4729C62.319 35.4729 61.9012 35.3718 61.5396 35.1696C61.178 34.9674 60.8954 34.6858 60.6918 34.3249C60.4882 33.9609 60.3864 33.5378 60.3864 33.0556C60.3864 32.7071 60.4442 32.3836 60.5596 32.0849C60.6781 31.7862 60.8422 31.528 61.0519 31.3102C61.2646 31.0925 61.5123 30.9229 61.7949 30.8016C62.0805 30.6802 62.3905 30.6196 62.7247 30.6196C63.0863 30.6196 63.4084 30.6849 63.691 30.8156C63.9767 30.9462 64.2122 31.1298 64.3975 31.3662C64.5859 31.5996 64.7211 31.8749 64.8032 32.1922C64.8852 32.5065 64.902 32.8487 64.8533 33.2189H61.216C61.2069 33.5238 61.2676 33.7914 61.3983 34.0216C61.529 34.2487 61.7174 34.426 61.9635 34.5536C62.2127 34.6811 62.5074 34.7449 62.8478 34.7449C63.097 34.7449 63.34 34.7045 63.5771 34.6236C63.8141 34.5427 64.0238 34.4229 64.2061 34.2642L64.5616 34.9036C64.4158 35.0249 64.2425 35.1291 64.042 35.2162C63.8445 35.3002 63.6378 35.364 63.4221 35.4076C63.2063 35.4511 62.9967 35.4729 62.7931 35.4729ZM61.2616 32.5516H64.0146C64.0025 32.1658 63.8855 31.8656 63.6637 31.6509C63.4418 31.4331 63.1243 31.3242 62.711 31.3242C62.3099 31.3242 61.9787 31.4331 61.7174 31.6509C61.456 31.8656 61.3041 32.1658 61.2616 32.5516Z" fill="white"/>
<path d="M66.9403 35.3329V30.7596H67.7562V34.6049H69.8119V30.7596H70.6278V34.6049H72.6835V30.7596H73.4994V35.3329H66.9403Z" fill="white"/>
<path d="M77.9654 35.4729C77.4914 35.4729 77.0736 35.3718 76.712 35.1696C76.3504 34.9674 76.0678 34.6858 75.8642 34.3249C75.6606 33.9609 75.5588 33.5378 75.5588 33.0556C75.5588 32.7071 75.6165 32.3836 75.732 32.0849C75.8505 31.7862 76.0146 31.528 76.2243 31.3102C76.437 31.0925 76.6846 30.9229 76.9672 30.8016C77.2529 30.6802 77.5628 30.6196 77.8971 30.6196C78.2587 30.6196 78.5808 30.6849 78.8634 30.8156C79.149 30.9462 79.3845 31.1298 79.5699 31.3662C79.7583 31.5996 79.8935 31.8749 79.9756 32.1922C80.0576 32.5065 80.0743 32.8487 80.0257 33.2189H76.3883C76.3792 33.5238 76.44 33.7914 76.5707 34.0216C76.7013 34.2487 76.8897 34.426 77.1359 34.5536C77.385 34.6811 77.6798 34.7449 78.0201 34.7449C78.2693 34.7449 78.5124 34.7045 78.7494 34.6236C78.9864 34.5427 79.1961 34.4229 79.3784 34.2642L79.734 34.9036C79.5881 35.0249 79.4149 35.1291 79.2144 35.2162C79.0168 35.3002 78.8102 35.364 78.5945 35.4076C78.3787 35.4511 78.169 35.4729 77.9654 35.4729ZM76.4339 32.5516H79.187C79.1749 32.1658 79.0579 31.8656 78.836 31.6509C78.6142 31.4331 78.2967 31.3242 77.8834 31.3242C77.4823 31.3242 77.1511 31.4331 76.8897 31.6509C76.6284 31.8656 76.4765 32.1658 76.4339 32.5516Z" fill="white"/>
<path d="M84.181 35.4729C83.7099 35.4729 83.2921 35.3671 82.9275 35.1556C82.5628 34.944 82.2772 34.6562 82.0706 34.2922C81.8639 33.9251 81.7606 33.5098 81.7606 33.0462C81.7606 32.6947 81.8214 32.3711 81.9429 32.0756C82.0675 31.78 82.2422 31.5234 82.4671 31.3056C82.692 31.0878 82.9548 30.9198 83.2557 30.8016C83.5595 30.6802 83.8907 30.6196 84.2493 30.6196C84.541 30.6196 84.81 30.6585 85.0561 30.7362C85.3022 30.814 85.5301 30.9338 85.7398 31.0956L85.3114 31.7582C85.1746 31.6369 85.0151 31.5467 84.8328 31.4876C84.6504 31.4254 84.4575 31.3942 84.2539 31.3942C83.9196 31.3942 83.6294 31.4596 83.3833 31.5902C83.1402 31.7178 82.9518 31.9045 82.8181 32.1502C82.6844 32.396 82.6175 32.6916 82.6175 33.0369C82.6175 33.5565 82.7634 33.964 83.0551 34.2596C83.3499 34.552 83.7479 34.6982 84.2493 34.6982C84.4803 34.6982 84.696 34.6562 84.8966 34.5722C85.0971 34.4851 85.2612 34.3731 85.3888 34.2362L85.8219 34.8896C85.5879 35.07 85.3311 35.2131 85.0515 35.3189C84.772 35.4216 84.4818 35.4729 84.181 35.4729Z" fill="white"/>
<path d="M88.8328 35.3329V31.4876H87.3013V30.7596H91.2076V31.4876H89.6715V35.3329H88.8328Z" fill="white"/>
<path d="M93.1631 35.3329V30.7596H95.2143C95.7126 30.7596 96.1137 30.8591 96.4176 31.0582C96.7245 31.2574 96.878 31.5529 96.878 31.9449C96.878 32.1191 96.8385 32.2762 96.7595 32.4162C96.6805 32.5562 96.568 32.676 96.4222 32.7756C96.2763 32.872 96.1046 32.9436 95.9071 32.9902L95.8934 32.8036C96.2733 32.8658 96.5635 33.0027 96.764 33.2142C96.9676 33.4227 97.0694 33.684 97.0694 33.9982C97.0694 34.2751 96.998 34.5131 96.8552 34.7122C96.7154 34.9114 96.5149 35.0654 96.2535 35.1742C95.9922 35.28 95.6807 35.3329 95.3191 35.3329H93.1631ZM93.979 34.6656H95.2052C95.5334 34.6656 95.7871 34.6096 95.9664 34.4976C96.1487 34.3856 96.2399 34.2176 96.2399 33.9936C96.2399 33.7696 96.1502 33.6031 95.9709 33.4942C95.7916 33.3822 95.5364 33.3262 95.2052 33.3262H93.8514V32.6776H95.1003C95.4103 32.6776 95.6503 32.6294 95.8205 32.5329C95.9907 32.4365 96.0758 32.2762 96.0758 32.0522C96.0758 31.8314 95.9907 31.6727 95.8205 31.5762C95.6534 31.4767 95.4133 31.4269 95.1003 31.4269H93.979V34.6656Z" fill="white"/>
<path d="M99.5497 37.4282C99.4038 37.4282 99.2595 37.4096 99.1166 37.3722C98.9738 37.338 98.8295 37.2758 98.6836 37.1856L98.8796 36.4436C98.9738 36.5058 99.0756 36.5525 99.185 36.5836C99.2944 36.6147 99.3916 36.6302 99.4767 36.6302C99.7016 36.6302 99.8763 36.5742 100.001 36.4622C100.125 36.3502 100.226 36.1791 100.302 35.9489L100.48 35.4262L98.711 30.7596H99.6317L100.954 34.4462L102.243 30.7596H103.132L101.177 36.0609C101.043 36.4218 100.894 36.7002 100.73 36.8962C100.569 37.0954 100.391 37.2338 100.197 37.3116C100.002 37.3894 99.7867 37.4282 99.5497 37.4282Z" fill="white"/>
<path d="M104.97 35.3329V30.7596H105.786V34.0449L108.384 30.7596H109.105V35.3329H108.289V32.0102L105.668 35.3329H104.97ZM107.035 29.9196C106.71 29.9196 106.424 29.848 106.178 29.7049C105.932 29.5618 105.742 29.3674 105.608 29.1216C105.475 28.8727 105.412 28.588 105.422 28.2676H106.137C106.125 28.5725 106.201 28.8198 106.365 29.0096C106.529 29.1962 106.753 29.2896 107.035 29.2896C107.318 29.2896 107.54 29.1962 107.701 29.0096C107.865 28.8198 107.939 28.5725 107.924 28.2676H108.644C108.65 28.5849 108.585 28.868 108.448 29.1169C108.314 29.3658 108.125 29.5618 107.878 29.7049C107.632 29.848 107.351 29.9196 107.035 29.9196Z" fill="white"/>
<path d="M117.831 35.3329L116.323 32.8922L117.677 30.7596H118.579L117.23 32.8502L118.843 35.3329H117.831ZM114.837 35.3329V30.7596H115.676V32.5609H117.011V33.2889H115.676V35.3329H114.837Z" fill="white"/>
<path d="M120.789 37.2929V30.7596H121.56V31.4456C121.745 31.2029 121.978 31.0054 122.257 30.8529C122.54 30.6974 122.895 30.6196 123.324 30.6196C123.767 30.6196 124.158 30.7269 124.495 30.9416C124.832 31.1531 125.095 31.4425 125.284 31.8096C125.475 32.1767 125.571 32.5889 125.571 33.0462C125.571 33.3791 125.516 33.6934 125.407 33.9889C125.3 34.2814 125.147 34.5396 124.946 34.7636C124.746 34.9845 124.507 35.1587 124.231 35.2862C123.957 35.4107 123.652 35.4729 123.315 35.4729C122.938 35.4729 122.608 35.4014 122.325 35.2582C122.046 35.112 121.812 34.9207 121.624 34.6842V37.2929H120.789ZM123.173 34.6982C123.474 34.6982 123.74 34.6314 123.971 34.4976C124.205 34.3607 124.387 34.1694 124.518 33.9236C124.652 33.6747 124.718 33.3822 124.718 33.0462C124.718 32.7071 124.652 32.4147 124.518 32.1689C124.387 31.92 124.205 31.7287 123.971 31.5949C123.74 31.4611 123.474 31.3942 123.173 31.3942C122.872 31.3942 122.605 31.4611 122.371 31.5949C122.14 31.7287 121.958 31.92 121.824 32.1689C121.69 32.4147 121.624 32.7071 121.624 33.0462C121.624 33.3822 121.69 33.6747 121.824 33.9236C121.958 34.1694 122.14 34.3607 122.371 34.4976C122.605 34.6314 122.872 34.6982 123.173 34.6982Z" fill="white"/>
<path d="M129.569 35.4729C129.119 35.4729 128.721 35.3656 128.374 35.1509C128.028 34.9362 127.757 34.6469 127.563 34.2829C127.369 33.9158 127.271 33.5036 127.271 33.0462C127.271 32.704 127.327 32.3851 127.44 32.0896C127.552 31.794 127.71 31.5374 127.914 31.3196C128.118 31.0987 128.359 30.9276 128.639 30.8062C128.921 30.6818 129.231 30.6196 129.569 30.6196C130.018 30.6196 130.392 30.716 130.69 30.9089C130.988 31.1018 131.22 31.3476 131.387 31.6462L131.264 31.8329V30.7596H132.03V35.3329H131.264V34.2596L131.387 34.4416C131.22 34.7402 130.988 34.9876 130.69 35.1836C130.392 35.3765 130.018 35.4729 129.569 35.4729ZM129.66 34.6982C129.958 34.6982 130.222 34.6314 130.453 34.4976C130.684 34.3607 130.865 34.1694 130.995 33.9236C131.129 33.6747 131.196 33.3822 131.196 33.0462C131.196 32.7071 131.129 32.4147 130.995 32.1689C130.865 31.92 130.684 31.7287 130.453 31.5949C130.222 31.4611 129.958 31.3942 129.66 31.3942C129.362 31.3942 129.098 31.4611 128.867 31.5949C128.636 31.7287 128.453 31.92 128.32 32.1689C128.186 32.4147 128.119 32.7071 128.119 33.0462C128.119 33.3822 128.186 33.6747 128.32 33.9236C128.453 34.1694 128.636 34.3607 128.867 34.4976C129.098 34.6314 129.362 34.6982 129.66 34.6982Z" fill="white"/>
<path d="M136.508 35.4729C136.037 35.4729 135.619 35.3671 135.254 35.1556C134.89 34.944 134.604 34.6562 134.397 34.2922C134.191 33.9251 134.087 33.5098 134.087 33.0462C134.087 32.6947 134.148 32.3711 134.27 32.0756C134.394 31.78 134.569 31.5234 134.794 31.3056C135.019 31.0878 135.282 30.9198 135.582 30.8016C135.886 30.6802 136.218 30.6196 136.576 30.6196C136.868 30.6196 137.137 30.6585 137.383 30.7362C137.629 30.814 137.857 30.9338 138.067 31.0956L137.638 31.7582C137.501 31.6369 137.342 31.5467 137.16 31.4876C136.977 31.4254 136.784 31.3942 136.581 31.3942C136.246 31.3942 135.956 31.4596 135.71 31.5902C135.467 31.7178 135.279 31.9045 135.145 32.1502C135.011 32.396 134.944 32.6916 134.944 33.0369C134.944 33.5565 135.09 33.964 135.382 34.2596C135.677 34.552 136.075 34.6982 136.576 34.6982C136.807 34.6982 137.023 34.6562 137.223 34.5722C137.424 34.4851 137.588 34.3731 137.716 34.2362L138.149 34.8896C137.915 35.07 137.658 35.2131 137.378 35.3189C137.099 35.4216 136.809 35.4729 136.508 35.4729Z" fill="white"/>
<path d="M140.125 35.3329V30.7596H140.941V34.0449L143.539 30.7596H144.259V35.3329H143.443V32.0102L140.822 35.3329H140.125Z" fill="white"/>
<path d="M146.71 35.3329V30.7596H148.761C149.259 30.7596 149.66 30.8591 149.964 31.0582C150.271 31.2574 150.424 31.5529 150.424 31.9449C150.424 32.1191 150.385 32.2762 150.306 32.4162C150.227 32.5562 150.114 32.676 149.969 32.7756C149.823 32.872 149.651 32.9436 149.454 32.9902L149.44 32.8036C149.82 32.8658 150.11 33.0027 150.31 33.2142C150.514 33.4227 150.616 33.684 150.616 33.9982C150.616 34.2751 150.544 34.5131 150.402 34.7122C150.262 34.9114 150.061 35.0654 149.8 35.1742C149.539 35.28 149.227 35.3329 148.866 35.3329H146.71ZM147.525 34.6656H148.752C149.08 34.6656 149.333 34.6096 149.513 34.4976C149.695 34.3856 149.786 34.2176 149.786 33.9936C149.786 33.7696 149.697 33.6031 149.517 33.4942C149.338 33.3822 149.083 33.3262 148.752 33.3262H147.398V32.6776H148.647C148.957 32.6776 149.197 32.6294 149.367 32.5329C149.537 32.4365 149.622 32.2762 149.622 32.0522C149.622 31.8314 149.537 31.6727 149.367 31.5762C149.2 31.4767 148.96 31.4269 148.647 31.4269H147.525V34.6656Z" fill="white"/>
<path d="M154.814 35.4729C154.353 35.4729 153.941 35.3625 153.579 35.1416C153.218 34.9207 152.934 34.6267 152.727 34.2596C152.52 33.8925 152.417 33.488 152.417 33.0462C152.417 32.7196 152.476 32.41 152.595 32.1176C152.713 31.8251 152.88 31.5669 153.096 31.3429C153.312 31.1158 153.566 30.9385 153.857 30.8109C154.149 30.6834 154.468 30.6196 154.814 30.6196C155.279 30.6196 155.693 30.73 156.054 30.9509C156.416 31.1718 156.7 31.4658 156.907 31.8329C157.113 32.2 157.217 32.6045 157.217 33.0462C157.217 33.3729 157.157 33.6825 157.039 33.9749C156.92 34.2674 156.753 34.5256 156.537 34.7496C156.322 34.9736 156.068 35.1509 155.776 35.2816C155.485 35.4091 155.164 35.4729 154.814 35.4729ZM154.814 34.6982C155.115 34.6982 155.381 34.6314 155.612 34.4976C155.846 34.3607 156.03 34.1694 156.164 33.9236C156.297 33.6747 156.364 33.3822 156.364 33.0462C156.364 32.7071 156.297 32.4147 156.164 32.1689C156.033 31.92 155.851 31.7287 155.617 31.5949C155.383 31.4611 155.115 31.3942 154.814 31.3942C154.514 31.3942 154.246 31.4611 154.012 31.5949C153.781 31.7287 153.599 31.92 153.465 32.1689C153.335 32.4147 153.269 32.7071 153.269 33.0462C153.269 33.3822 153.335 33.6747 153.465 33.9236C153.599 34.1694 153.783 34.3607 154.017 34.4976C154.251 34.6314 154.517 34.6982 154.814 34.6982Z" fill="white"/>
</svg>
