<svg width="739" height="1517" viewBox="0 0 739 1517" fill="none" xmlns="http://www.w3.org/2000/svg">
<path d="M434.817 1C434.817 1 391.317 60 273.817 76.5C156.317 93 97.8169 157 97.8169 157C97.8169 157 -12.1829 261.5 2.31719 360.5C16.8173 459.5 55.8172 498 55.8172 498C55.8172 498 82.8164 528.5 245.316 648.5C366.179 737.752 477.297 879.131 547.316 947.5C571.438 971.053 626.816 989 626.816 989C626.816 989 729.316 1002 737.816 1136.5C746.316 1271 645.316 1304 630.316 1313.5C615.316 1323 470.316 1377 455.316 1385.5C440.316 1394 351.816 1426 329.316 1516" stroke="#EFF2FB" stroke-dasharray="4 4"/>
</svg>
