<svg width="1729" height="439" viewBox="0 0 1729 439" fill="none" xmlns="http://www.w3.org/2000/svg">
<path d="M0 290.252C79.681 290.252 326.046 67.2448 404.004 47.4411C481.962 27.6373 466.354 124.828 473.779 150.334C500.355 241.627 626.745 68.1059 721.866 68.1059C745.555 68.1059 768.569 79.3638 779.581 101.686C825.667 195.108 638.74 249.353 668.889 363.44C674.127 383.261 680.71 394.537 695.593 408.644C770.536 479.679 821.112 310.969 916.977 291.544C1034.06 267.819 1104.48 370.902 1219.33 338.04C1310.82 311.862 1364.56 284.369 1417.03 205.01C1449.76 155.501 1462.8 87.6338 1511.78 51.3159C1560.8 14.9819 1584.14 12.9998 1642.72 13C1669.9 13.0001 1728 14.2915 1728 14.2915" stroke="white" stroke-width="25"/>
</svg>
