<svg width="38" height="48" viewBox="0 0 38 48" fill="none" xmlns="http://www.w3.org/2000/svg">
<g>
<path d="M1.37458 18.337C-0.0937309 29.7996 2.28405 45.722 17.0241 46.9227C23.1234 47.4188 28.7351 45.5563 32.3961 40.5247C35.3701 36.4363 36.3943 31.2372 36.6622 26.2884C37.1481 17.3368 35.1342 5.70943 25.3944 2.11809C21.64 0.73392 17.2911 0.672461 13.4477 1.72617C5.82224 3.81667 2.30452 11.076 1.37458 18.337Z" stroke="#1C1B1E"/>
<path d="M27.0818 14.4179L27.0792 16.1485C27.0792 16.1782 27.0643 16.1931 27.0347 16.1931C23.525 16.1851 20.4255 14.172 18.8709 11.0617C18.8685 11.0569 18.8649 11.053 18.8604 11.0503C18.8558 11.0475 18.8506 11.0461 18.8453 11.0462C18.8399 11.0463 18.8346 11.0479 18.8301 11.0508C18.8255 11.0537 18.8217 11.0578 18.8192 11.0626C18.379 11.9515 17.8122 12.7511 17.1187 13.4613C17.111 13.4691 17.1063 13.4794 17.1054 13.4904C17.1044 13.5014 17.1072 13.5125 17.1133 13.5218C19.3229 16.878 22.9857 18.9338 27.0204 18.965C27.0363 18.965 27.0514 18.9713 27.0626 18.9824C27.0738 18.9936 27.0801 19.0088 27.0801 19.0246V20.7375C27.0801 20.7464 27.0783 20.7553 27.0748 20.7636C27.0714 20.7719 27.0663 20.7794 27.0599 20.7857C27.0536 20.792 27.046 20.7969 27.0377 20.8003C27.0294 20.8036 27.0205 20.8053 27.0115 20.8052C25.7663 20.7915 24.5442 20.6169 23.3452 20.2814C23.3126 20.2725 23.2841 20.2797 23.2598 20.3028C22.501 21.0296 21.6868 21.6876 20.817 22.2766C20.8137 22.279 20.8111 22.2823 20.8094 22.286C20.8078 22.2898 20.8071 22.2939 20.8076 22.298C20.808 22.3021 20.8096 22.3059 20.812 22.3092C20.8144 22.3125 20.8177 22.3151 20.8215 22.3167C22.8101 23.1338 24.882 23.5506 27.0374 23.5673C27.0658 23.5673 27.0801 23.5815 27.0801 23.61V25.3674C27.0801 25.3941 27.0667 25.4075 27.04 25.4075C24.524 25.3855 22.1133 24.8802 19.8079 23.8915C19.7765 23.8778 19.7607 23.8882 19.7607 23.9227V29.5974C19.7607 29.6253 19.7744 29.6425 19.8017 29.6491C21.213 29.9973 22.2106 30.8586 23.3621 31.6736C24.6791 32.6062 26.2685 32.4468 27.5019 31.4251C29.5771 29.7052 31.8134 28.7949 34.3104 30.3518C34.317 30.3561 34.3246 30.3586 34.3325 30.3591C34.3404 30.3597 34.3482 30.3583 34.3554 30.355C34.3626 30.3517 34.3688 30.3467 34.3735 30.3404C34.3783 30.3341 34.3813 30.3267 34.3825 30.3189C35.7093 21.6567 34.8532 7.81148 24.9862 3.96182C21.7194 2.68722 17.9249 2.57676 14.5496 3.36683C2.95788 6.08171 1.88379 21.0359 3.30494 30.3322C3.30563 30.3365 3.30737 30.3406 3.30999 30.3441C3.31262 30.3476 3.31606 30.3504 3.32001 30.3522C3.32396 30.354 3.3283 30.3549 3.33265 30.3547C3.33701 30.3545 3.34124 30.3532 3.34499 30.3509C5.08798 29.3219 6.8022 29.2865 8.48765 30.2449C9.45584 30.7954 10.352 31.7093 11.313 32.0798C13.3286 32.8556 14.6296 31.3779 16.0508 30.4275C16.5746 30.0772 17.1818 29.8189 17.8724 29.6526C17.9003 29.6461 17.9142 29.6283 17.9142 29.5992V23.9396C17.9142 23.9022 17.8967 23.8903 17.8617 23.904C17.4203 24.075 16.9238 24.2816 16.5367 24.4126C14.6282 25.058 12.6621 25.3909 10.6385 25.411C10.6328 25.4112 10.6272 25.4101 10.6219 25.408C10.6166 25.406 10.6118 25.4028 10.6077 25.3988C10.6037 25.3949 10.6004 25.3901 10.5982 25.3849C10.596 25.3796 10.5949 25.374 10.5949 25.3683V23.6118C10.5949 23.5881 10.6068 23.5762 10.6305 23.5762C14.6848 23.5097 18.2453 22.1789 21.3118 19.584C21.3409 19.5591 21.3382 19.5383 21.3038 19.5217C20.4465 19.1155 19.6367 18.6307 18.8744 18.0671C18.8654 18.0606 18.8546 18.0571 18.8435 18.0571C18.8325 18.0571 18.8218 18.0606 18.813 18.0671C16.4062 19.842 13.6976 20.755 10.6874 20.8061C10.6257 20.8073 10.5949 20.777 10.5949 20.7152V19.0255C10.5949 18.9899 10.6127 18.9718 10.6483 18.9712C13.1121 18.9314 15.3549 18.2183 17.3767 16.8317C17.4034 16.8133 17.4052 16.7925 17.3821 16.7694C16.7532 16.1358 16.1899 15.4487 15.6922 14.7083C15.6732 14.6809 15.6501 14.6762 15.6228 14.694C14.1165 15.6785 12.4595 16.1815 10.6519 16.2029C10.6139 16.2035 10.5949 16.1848 10.5949 16.1468V14.4321C10.5949 14.3941 10.6139 14.3745 10.6519 14.3733C14.6937 14.2193 17.8688 11.1543 17.916 7.06684C17.9166 7.0324 17.9341 7.01488 17.9685 7.01429L19.7047 7.00984C19.732 7.00984 19.7471 7.0232 19.7501 7.04992C19.769 7.21737 19.7848 7.38512 19.7972 7.55317C20.0873 11.4233 23.1824 14.2415 27.0436 14.3778C27.0691 14.379 27.0818 14.3924 27.0818 14.4179Z" stroke="#1C1B1E"/>
<path d="M8.65364 41.54C11.7415 44.4233 15.9 45.4129 20.0371 45.1554C22.2262 45.0192 24.3975 44.5462 26.301 43.5379C30.5876 41.2684 32.9725 36.9645 34.0145 32.3809C34.0211 32.3529 34.0128 32.3301 33.9896 32.3123C32.6913 31.3049 31.3173 31.0101 29.8997 32.0032C29.1104 32.5563 28.2045 33.2662 27.4623 33.6323C26.0233 34.3422 24.4322 34.2995 22.9933 33.5423C22.1203 33.0836 21.3141 32.3746 20.5336 31.8767C18.4949 30.5754 16.9687 32.0843 15.4106 33.1745C14.017 34.1489 12.5321 34.3853 10.9558 33.8835C9.55509 33.4381 8.51037 32.2749 7.47454 31.7422C6.17352 31.0733 4.88585 31.4153 3.80108 32.3185C3.78032 32.3357 3.7729 32.3577 3.77883 32.3844C4.55037 35.7869 6.08097 39.1387 8.65364 41.54Z" stroke="#1C1B1E"/>
<g>
<mask fill="white">
<path d="M17.0241 46.9226C2.28405 45.722 -0.0937309 29.7996 1.37458 18.337C2.30452 11.076 5.82224 3.81667 13.4477 1.72617C17.2911 0.672461 21.64 0.73392 25.3944 2.11809C35.1342 5.70943 37.1481 17.3368 36.6622 26.2884C36.3943 31.2372 35.3701 36.4363 32.3961 40.5247C28.7351 45.5563 23.1234 47.4188 17.0241 46.9226ZM27.0817 14.4179L27.079 16.1486C27.079 16.1783 27.0642 16.1931 27.0345 16.1931C23.5248 16.1851 20.4253 14.1721 18.8707 11.0617C18.8683 11.057 18.8647 11.053 18.8602 11.0503C18.8556 11.0476 18.8504 11.0462 18.8451 11.0463C18.8397 11.0464 18.8345 11.0479 18.8299 11.0508C18.8253 11.0537 18.8215 11.0578 18.819 11.0626C18.3788 11.9515 17.812 12.7511 17.1185 13.4613C17.1108 13.4691 17.1061 13.4794 17.1052 13.4904C17.1042 13.5015 17.107 13.5125 17.1131 13.5219C19.3227 16.8781 22.9855 18.9338 27.0203 18.965C27.0361 18.965 27.0512 18.9713 27.0624 18.9825C27.0736 18.9937 27.0799 19.0089 27.0799 19.0247V20.7375C27.0799 20.7465 27.0781 20.7554 27.0746 20.7636C27.0712 20.7719 27.0661 20.7794 27.0598 20.7857C27.0534 20.792 27.0458 20.797 27.0375 20.8003C27.0292 20.8037 27.0203 20.8053 27.0114 20.8052C25.7661 20.7916 24.544 20.617 23.345 20.2815C23.3124 20.2726 23.2839 20.2797 23.2596 20.3029C22.5008 21.0297 21.6866 21.6876 20.8168 22.2767C20.8135 22.2791 20.8109 22.2823 20.8092 22.2861C20.8076 22.2898 20.8069 22.2939 20.8074 22.298C20.8078 22.3021 20.8094 22.306 20.8118 22.3093C20.8142 22.3126 20.8175 22.3151 20.8213 22.3167C22.8099 23.1338 24.8819 23.5507 27.0372 23.5673C27.0656 23.5673 27.0799 23.5816 27.0799 23.6101V25.3674C27.0799 25.3942 27.0665 25.4075 27.0398 25.4075C24.5238 25.3855 22.1131 24.8802 19.8077 23.8915C19.7763 23.8779 19.7605 23.8883 19.7605 23.9227V29.5974C19.7605 29.6253 19.7742 29.6426 19.8015 29.6491C21.2128 29.9974 22.2104 30.8587 23.3619 31.6737C24.679 32.6062 26.2683 32.4468 27.5017 31.4252C29.5769 29.7052 31.8132 28.7949 34.3102 30.3519C34.3168 30.3561 34.3244 30.3586 34.3323 30.3592C34.3402 30.3597 34.348 30.3583 34.3552 30.355C34.3624 30.3518 34.3686 30.3467 34.3733 30.3404C34.3781 30.3341 34.3812 30.3267 34.3823 30.3189C35.7091 21.6567 34.853 7.81151 24.986 3.96186C21.7192 2.68725 17.9247 2.5768 14.5494 3.36686C2.95769 6.08175 1.8836 21.0359 3.30475 30.3323C3.30544 30.3366 3.30717 30.3406 3.3098 30.3441C3.31243 30.3476 3.31587 30.3504 3.31982 30.3522C3.32377 30.3541 3.32811 30.3549 3.33246 30.3547C3.33681 30.3545 3.34105 30.3532 3.3448 30.351C5.08779 29.3219 6.80201 29.2866 8.48745 30.245C9.45565 30.7954 10.3518 31.7093 11.3128 32.0798C13.3284 32.8556 14.6295 31.378 16.0506 30.4276C16.5745 30.0772 17.1817 29.8189 17.8722 29.6526C17.9001 29.6461 17.914 29.6283 17.914 29.5992V23.9396C17.914 23.9022 17.8965 23.8903 17.8615 23.904C17.4201 24.075 16.9236 24.2817 16.5365 24.4126C14.628 25.0581 12.6619 25.3909 10.6383 25.4111C10.6326 25.4112 10.627 25.4102 10.6217 25.4081C10.6164 25.406 10.6116 25.4029 10.6075 25.3989C10.6035 25.3949 10.6002 25.3901 10.598 25.3849C10.5958 25.3797 10.5947 25.374 10.5947 25.3683V23.6118C10.5947 23.5881 10.6066 23.5762 10.6303 23.5762C14.6846 23.5097 18.2451 22.179 21.3116 19.584C21.3407 19.5591 21.338 19.5383 21.3036 19.5217C20.4464 19.1155 19.6366 18.6307 18.8742 18.0672C18.8652 18.0607 18.8544 18.0571 18.8433 18.0571C18.8323 18.0571 18.8216 18.0607 18.8128 18.0672C16.406 19.8421 13.6974 20.755 10.6873 20.8061C10.6256 20.8073 10.5947 20.777 10.5947 20.7153V19.0256C10.5947 18.9899 10.6125 18.9718 10.6481 18.9712C13.1119 18.9315 15.3547 18.2183 17.3765 16.8317C17.4032 16.8133 17.405 16.7926 17.3819 16.7694C16.753 16.1358 16.1897 15.4488 15.692 14.7083C15.673 14.681 15.6499 14.6762 15.6226 14.694C14.1163 15.6786 12.4593 16.1815 10.6517 16.2029C10.6137 16.2035 10.5947 16.1848 10.5947 16.1468V14.4322C10.5947 14.3942 10.6137 14.3746 10.6517 14.3734C14.6935 14.2193 17.8686 11.1544 17.9158 7.06688C17.9164 7.03244 17.9339 7.01492 17.9683 7.01433L19.7045 7.00987C19.7318 7.00987 19.7469 7.02323 19.7499 7.04995C19.7689 7.21741 19.7846 7.38516 19.797 7.55321C20.0871 11.4233 23.1822 14.2416 27.0434 14.3778C27.0689 14.379 27.0817 14.3924 27.0817 14.4179ZM8.65386 41.5401C11.7418 44.4233 15.9002 45.4129 20.0373 45.1555C22.2264 45.0192 24.3978 44.5462 26.3012 43.5379C30.5878 41.2684 32.9727 36.9645 34.0148 32.3809C34.0213 32.353 34.013 32.3301 33.9899 32.3123C32.6915 31.3049 31.3175 31.0101 29.8999 32.0032C29.1106 32.5564 28.2047 33.2663 27.4625 33.6324C26.0236 34.3422 24.4325 34.2995 22.9935 33.5424C22.1205 33.0837 21.3143 32.3747 20.5339 31.8768C18.4951 30.5754 16.969 32.0843 15.4108 33.1745C14.0172 34.149 12.5323 34.3853 10.956 33.8835C9.55532 33.4382 8.51059 32.2749 7.47476 31.7423C6.17375 31.0733 4.88608 31.4154 3.8013 32.3186C3.78054 32.3358 3.77312 32.3577 3.77906 32.3845C4.55059 35.787 6.0812 39.1387 8.65386 41.5401Z"/>
</mask>
<path d="M17.0241 46.9226C2.28405 45.722 -0.0937309 29.7996 1.37458 18.337C2.30452 11.076 5.82224 3.81667 13.4477 1.72617C17.2911 0.672461 21.64 0.73392 25.3944 2.11809C35.1342 5.70943 37.1481 17.3368 36.6622 26.2884C36.3943 31.2372 35.3701 36.4363 32.3961 40.5247C28.7351 45.5563 23.1234 47.4188 17.0241 46.9226ZM27.0817 14.4179L27.079 16.1486C27.079 16.1783 27.0642 16.1931 27.0345 16.1931C23.5248 16.1851 20.4253 14.1721 18.8707 11.0617C18.8683 11.057 18.8647 11.053 18.8602 11.0503C18.8556 11.0476 18.8504 11.0462 18.8451 11.0463C18.8397 11.0464 18.8345 11.0479 18.8299 11.0508C18.8253 11.0537 18.8215 11.0578 18.819 11.0626C18.3788 11.9515 17.812 12.7511 17.1185 13.4613C17.1108 13.4691 17.1061 13.4794 17.1052 13.4904C17.1042 13.5015 17.107 13.5125 17.1131 13.5219C19.3227 16.8781 22.9855 18.9338 27.0203 18.965C27.0361 18.965 27.0512 18.9713 27.0624 18.9825C27.0736 18.9937 27.0799 19.0089 27.0799 19.0247V20.7375C27.0799 20.7465 27.0781 20.7554 27.0746 20.7636C27.0712 20.7719 27.0661 20.7794 27.0598 20.7857C27.0534 20.792 27.0458 20.797 27.0375 20.8003C27.0292 20.8037 27.0203 20.8053 27.0114 20.8052C25.7661 20.7916 24.544 20.617 23.345 20.2815C23.3124 20.2726 23.2839 20.2797 23.2596 20.3029C22.5008 21.0297 21.6866 21.6876 20.8168 22.2767C20.8135 22.2791 20.8109 22.2823 20.8092 22.2861C20.8076 22.2898 20.8069 22.2939 20.8074 22.298C20.8078 22.3021 20.8094 22.306 20.8118 22.3093C20.8142 22.3126 20.8175 22.3151 20.8213 22.3167C22.8099 23.1338 24.8819 23.5507 27.0372 23.5673C27.0656 23.5673 27.0799 23.5816 27.0799 23.6101V25.3674C27.0799 25.3942 27.0665 25.4075 27.0398 25.4075C24.5238 25.3855 22.1131 24.8802 19.8077 23.8915C19.7763 23.8779 19.7605 23.8883 19.7605 23.9227V29.5974C19.7605 29.6253 19.7742 29.6426 19.8015 29.6491C21.2128 29.9974 22.2104 30.8587 23.3619 31.6737C24.679 32.6062 26.2683 32.4468 27.5017 31.4252C29.5769 29.7052 31.8132 28.7949 34.3102 30.3519C34.3168 30.3561 34.3244 30.3586 34.3323 30.3592C34.3402 30.3597 34.348 30.3583 34.3552 30.355C34.3624 30.3518 34.3686 30.3467 34.3733 30.3404C34.3781 30.3341 34.3812 30.3267 34.3823 30.3189C35.7091 21.6567 34.853 7.81151 24.986 3.96186C21.7192 2.68725 17.9247 2.5768 14.5494 3.36686C2.95769 6.08175 1.8836 21.0359 3.30475 30.3323C3.30544 30.3366 3.30717 30.3406 3.3098 30.3441C3.31243 30.3476 3.31587 30.3504 3.31982 30.3522C3.32377 30.3541 3.32811 30.3549 3.33246 30.3547C3.33681 30.3545 3.34105 30.3532 3.3448 30.351C5.08779 29.3219 6.80201 29.2866 8.48745 30.245C9.45565 30.7954 10.3518 31.7093 11.3128 32.0798C13.3284 32.8556 14.6295 31.378 16.0506 30.4276C16.5745 30.0772 17.1817 29.8189 17.8722 29.6526C17.9001 29.6461 17.914 29.6283 17.914 29.5992V23.9396C17.914 23.9022 17.8965 23.8903 17.8615 23.904C17.4201 24.075 16.9236 24.2817 16.5365 24.4126C14.628 25.0581 12.6619 25.3909 10.6383 25.4111C10.6326 25.4112 10.627 25.4102 10.6217 25.4081C10.6164 25.406 10.6116 25.4029 10.6075 25.3989C10.6035 25.3949 10.6002 25.3901 10.598 25.3849C10.5958 25.3797 10.5947 25.374 10.5947 25.3683V23.6118C10.5947 23.5881 10.6066 23.5762 10.6303 23.5762C14.6846 23.5097 18.2451 22.179 21.3116 19.584C21.3407 19.5591 21.338 19.5383 21.3036 19.5217C20.4464 19.1155 19.6366 18.6307 18.8742 18.0672C18.8652 18.0607 18.8544 18.0571 18.8433 18.0571C18.8323 18.0571 18.8216 18.0607 18.8128 18.0672C16.406 19.8421 13.6974 20.755 10.6873 20.8061C10.6256 20.8073 10.5947 20.777 10.5947 20.7153V19.0256C10.5947 18.9899 10.6125 18.9718 10.6481 18.9712C13.1119 18.9315 15.3547 18.2183 17.3765 16.8317C17.4032 16.8133 17.405 16.7926 17.3819 16.7694C16.753 16.1358 16.1897 15.4488 15.692 14.7083C15.673 14.681 15.6499 14.6762 15.6226 14.694C14.1163 15.6786 12.4593 16.1815 10.6517 16.2029C10.6137 16.2035 10.5947 16.1848 10.5947 16.1468V14.4322C10.5947 14.3942 10.6137 14.3746 10.6517 14.3734C14.6935 14.2193 17.8686 11.1544 17.9158 7.06688C17.9164 7.03244 17.9339 7.01492 17.9683 7.01433L19.7045 7.00987C19.7318 7.00987 19.7469 7.02323 19.7499 7.04995C19.7689 7.21741 19.7846 7.38516 19.797 7.55321C20.0871 11.4233 23.1822 14.2416 27.0434 14.3778C27.0689 14.379 27.0817 14.3924 27.0817 14.4179ZM8.65386 41.5401C11.7418 44.4233 15.9002 45.4129 20.0373 45.1555C22.2264 45.0192 24.3978 44.5462 26.3012 43.5379C30.5878 41.2684 32.9727 36.9645 34.0148 32.3809C34.0213 32.353 34.013 32.3301 33.9899 32.3123C32.6915 31.3049 31.3175 31.0101 29.8999 32.0032C29.1106 32.5564 28.2047 33.2663 27.4625 33.6324C26.0236 34.3422 24.4325 34.2995 22.9935 33.5424C22.1205 33.0837 21.3143 32.3747 20.5339 31.8768C18.4951 30.5754 16.969 32.0843 15.4108 33.1745C14.0172 34.149 12.5323 34.3853 10.956 33.8835C9.55532 33.4382 8.51059 32.2749 7.47476 31.7423C6.17375 31.0733 4.88608 31.4154 3.8013 32.3186C3.78054 32.3358 3.77312 32.3577 3.77906 32.3845C4.55059 35.787 6.0812 39.1387 8.65386 41.5401Z" fill="#1C1B1E" stroke="#1C1B1E" stroke-width="2" mask="url(#path-4-inside-1_802_1275)"/>
</g>
</g>
</svg>
