<svg width="40" height="40" viewBox="0 0 40 40" fill="none" xmlns="http://www.w3.org/2000/svg">
<g>
<rect width="40" height="40" rx="20" fill="#0077FF"/>
<path d="M21.398 27C13.6208 27 9.18483 21.7447 9 13H12.8957C13.0237 19.4184 15.8957 22.1371 18.1706 22.6977V13H21.8388V18.5355C24.0852 18.2973 26.4454 15.7748 27.2416 13H30.9098C30.6098 14.4391 30.0118 15.8017 29.1531 17.0025C28.2944 18.2033 27.1935 19.2166 25.9194 19.979C27.3416 20.6756 28.5978 21.6615 29.6051 22.8717C30.6124 24.082 31.3478 25.489 31.7629 27H27.725C27.3524 25.6876 26.5951 24.5128 25.548 23.6228C24.5009 22.7328 23.2106 22.1673 21.8388 21.997V27H21.398Z" fill="white"/>
</g>
</svg>
